<?xml version="1.0" encoding="utf-8"?>
<!-- Generator: Adobe Illustrator 18.1.1, SVG Export Plug-In . SVG Version: 6.00 Build 0)  -->
<!DOCTYPE svg PUBLIC "-//W3C//DTD SVG 1.1//EN" "http://www.w3.org/Graphics/SVG/1.1/DTD/svg11.dtd">
<svg version="1.1" id="Layer_1" xmlns="http://www.w3.org/2000/svg" xmlns:xlink="http://www.w3.org/1999/xlink" x="0px" y="0px"
	 viewBox="0 12 127.1 127.1" enable-background="new 0 12 127.1 127.1" xml:space="preserve">
<g>
	<g>
		<path fill="#5FC3E4" d="M63.6,13.6c34.2,0,61.9,27.7,61.9,61.9s-27.7,61.9-61.9,61.9S1.7,109.7,1.7,75.4
			C1.6,41.3,29.3,13.6,63.6,13.6z"/>
		<path fill="#00519F" d="M63.6,13.6V12c35,0,63.6,28.4,63.6,63.6c0,35-28.4,63.6-63.6,63.6C28.4,139,0,110.6,0,75.6
			C0,40.4,28.4,12,63.6,12V13.6v1.6c-16.7,0-31.7,6.7-42.6,17.6S3.3,58.8,3.3,75.3c0,16.7,6.7,31.7,17.6,42.6s26,17.6,42.6,17.6
			c16.7,0,31.7-6.7,42.6-17.6s17.6-26,17.6-42.6c0-16.7-6.7-31.7-17.6-42.6s-26-17.6-42.6-17.6C63.6,15.1,63.6,13.6,63.6,13.6z"/>
		<path fill="#00519F" d="M43,120l-5.4,10.8c5.9,2.7,12.1,4.5,18.5,5.2l1.2-12C52.6,123.3,47.7,122.1,43,120 M66.8,136.3
			c2.3-0.1,4.6-0.4,6.7-0.7l-4.5-8L66.8,136.3z M78.6,122.5l4.8,10.7c6.2-2.1,12-5.1,17.4-9.1l-5.5-9.7
			C90.2,118.1,84.5,120.9,78.6,122.5z M108.4,117.3c1.3-1.3,2.6-2.8,3.8-4.4l0.3-0.3l-7.5-2.8L108.4,117.3z M109.7,98.3l8.8,5.2
			c10.1-18.9,9.6-41.5-0.5-59.7c-2.1,1.3-4.5,3-6.9,5C118.8,64.1,118.5,82.8,109.7,98.3z M17.9,83l3,3.5
			c7.6,10.6,9.5,10.5,12.9,13.6c1.6,1.5,3.1,2.8,4.8,3.9c-2-3.2-1.6-7.4,1-10.3c3.2-3.4,8.6-3.6,12-0.4s3.6,8.6,0.4,12
			c-1.8,1.9-4.1,2.7-6.4,2.7c7,3.3,14.7,4.7,22.3,4.1c-1.5-0.3-2.9-1-4-2.1c-3.4-3.2-3.6-8.6-0.4-12c3.2-3.4,8.6-3.6,12-0.4
			c3.4,3.2,3.6,8.6,0.4,12c-0.7,0.7-1.6,1.3-2.4,1.8c7.9-1.6,15.4-5.2,21.8-10.9c-3.2,2.3-7.8,2.1-10.7-0.7c-3.4-3.2-3.6-8.6-0.4-12
			c3.2-3.4,8.6-3.6,12-0.4c3.3,3.1,3.6,8,0.8,11.5L98,98c12.1-13,15.1-31.1,9.4-46.7l-0.4,0.3C89.6,65.6,72.2,93.5,41.1,84.9
			C30.9,82.1,15.2,66.1,2.1,70l-0.8,0.2c-1,16.3,4.3,32.6,15.4,45.2l10.2-6.5C26.7,104.8,17.7,101,17.9,83z M78.1,107.5h0.1H78.1z
			 M23.6,122l0.9,0.7c1.1,0.9,2.4,1.9,3.7,2.7l2.7-7.7L23.6,122z"/>
		<path fill="#00519F" d="M73,63.5c-1.6,2.1-3.2,3.6-5.2,4.6c-2,0.9-4.3,1.5-6.8,1.5c-5.8,0-10.5-2-14-6c-3.5-3.9-5.3-9.2-5.3-15.8
			S43.4,35.9,47,32c3.5-3.9,8.3-5.9,14.3-5.9c5.2,0,9.3,1.2,12.6,3.7c3.2,2.5,5.2,5.8,5.8,10.2h-8.6c-0.5-2.1-1.6-3.7-3.2-4.9
			c-1.6-1.1-3.7-1.8-6.3-1.8c-3.4,0-6.1,1.2-8.1,3.7c-2,2.5-2.9,6-2.9,10.5s1,8,3,10.6c2.1,2.5,5,3.7,8.5,3.7c2.7,0,5-0.8,6.7-2.4
			c1.8-1.6,2.9-3.7,3.3-6.5h-9.3v-7h17.1v22.3h-5.7L73,63.5z"/>
	</g>
</g>
</svg>
